<mxfile host="app.diagrams.net" modified="2021-07-15T08:03:55.694Z" agent="5.0 (Windows NT 10.0; Win64; x64) AppleWebKit/537.36 (KHTML, like Gecko) Chrome/91.0.4472.124 Safari/537.36" etag="pjLH2KzPyJ_kBqnkFzLg" version="14.8.6" type="github">
  <diagram id="dFEMBiAQDfq9aI7LGW4W" name="Page-1">
    <mxGraphModel dx="1632" dy="1536" grid="1" gridSize="10" guides="1" tooltips="1" connect="1" arrows="1" fold="1" page="1" pageScale="1" pageWidth="850" pageHeight="1100" math="0" shadow="0">
      <root>
        <mxCell id="0" />
        <mxCell id="1" parent="0" />
        <mxCell id="fIrhu684fTIpMeampoxX-4" style="edgeStyle=orthogonalEdgeStyle;rounded=0;orthogonalLoop=1;jettySize=auto;html=1;exitX=0.5;exitY=1;exitDx=0;exitDy=0;exitPerimeter=0;startArrow=none;" parent="1" source="fIrhu684fTIpMeampoxX-20" edge="1">
          <mxGeometry relative="1" as="geometry">
            <mxPoint x="158.25" y="143.5" as="sourcePoint" />
            <mxPoint x="158.25" y="143.5" as="targetPoint" />
            <Array as="points">
              <mxPoint x="158" y="97" />
            </Array>
          </mxGeometry>
        </mxCell>
        <mxCell id="fIrhu684fTIpMeampoxX-9" value="" style="outlineConnect=0;dashed=0;verticalLabelPosition=bottom;verticalAlign=top;align=center;html=1;shape=mxgraph.aws3.management_console;fillColor=#D2D3D3;gradientColor=none;" parent="1" vertex="1">
          <mxGeometry x="-10" y="70" width="63" height="63" as="geometry" />
        </mxCell>
        <mxCell id="fIrhu684fTIpMeampoxX-12" value="" style="endArrow=classic;startArrow=classic;html=1;" parent="1" edge="1">
          <mxGeometry width="50" height="50" relative="1" as="geometry">
            <mxPoint x="196.5" y="97" as="sourcePoint" />
            <mxPoint x="270" y="97" as="targetPoint" />
          </mxGeometry>
        </mxCell>
        <mxCell id="fIrhu684fTIpMeampoxX-13" value="" style="endArrow=classic;startArrow=classic;html=1;" parent="1" edge="1">
          <mxGeometry width="50" height="50" relative="1" as="geometry">
            <mxPoint x="53" y="80" as="sourcePoint" />
            <mxPoint x="126.5" y="80" as="targetPoint" />
          </mxGeometry>
        </mxCell>
        <mxCell id="fIrhu684fTIpMeampoxX-16" value="Amazon EC2" style="outlineConnect=0;fontColor=#232F3E;gradientColor=none;strokeColor=#ffffff;fillColor=#232F3E;dashed=0;verticalLabelPosition=middle;verticalAlign=bottom;align=center;html=1;whiteSpace=wrap;fontSize=10;fontStyle=1;spacing=3;shape=mxgraph.aws4.productIcon;prIcon=mxgraph.aws4.ec2;" parent="1" vertex="1">
          <mxGeometry x="380" y="-20" width="80" height="100" as="geometry" />
        </mxCell>
        <mxCell id="fIrhu684fTIpMeampoxX-17" value="Lambda&#xa;Function" style="outlineConnect=0;fontColor=#232F3E;gradientColor=none;strokeColor=#232F3E;fillColor=#ffffff;dashed=0;verticalLabelPosition=bottom;verticalAlign=top;align=center;html=1;fontSize=12;fontStyle=0;aspect=fixed;shape=mxgraph.aws4.resourceIcon;resIcon=mxgraph.aws4.lambda_function;" parent="1" vertex="1">
          <mxGeometry x="270" y="60" width="60" height="60" as="geometry" />
        </mxCell>
        <mxCell id="fIrhu684fTIpMeampoxX-18" value="Instances" style="outlineConnect=0;fontColor=#232F3E;gradientColor=none;strokeColor=#232F3E;fillColor=#ffffff;dashed=0;verticalLabelPosition=bottom;verticalAlign=top;align=center;html=1;fontSize=12;fontStyle=0;aspect=fixed;shape=mxgraph.aws4.resourceIcon;resIcon=mxgraph.aws4.instances;" parent="1" vertex="1">
          <mxGeometry x="520" y="110" width="60" height="60" as="geometry" />
        </mxCell>
        <mxCell id="fIrhu684fTIpMeampoxX-19" value="Amazon DynamoDB" style="outlineConnect=0;fontColor=#232F3E;gradientColor=none;strokeColor=#ffffff;fillColor=#232F3E;dashed=0;verticalLabelPosition=middle;verticalAlign=bottom;align=center;html=1;whiteSpace=wrap;fontSize=10;fontStyle=1;spacing=3;shape=mxgraph.aws4.productIcon;prIcon=mxgraph.aws4.dynamodb;" parent="1" vertex="1">
          <mxGeometry x="380" y="240" width="80" height="110" as="geometry" />
        </mxCell>
        <mxCell id="fIrhu684fTIpMeampoxX-20" value="Amazon API Gateway" style="outlineConnect=0;fontColor=#232F3E;gradientColor=none;strokeColor=#ffffff;fillColor=#232F3E;dashed=0;verticalLabelPosition=middle;verticalAlign=bottom;align=center;html=1;whiteSpace=wrap;fontSize=10;fontStyle=1;spacing=3;shape=mxgraph.aws4.productIcon;prIcon=mxgraph.aws4.api_gateway;" parent="1" vertex="1">
          <mxGeometry x="130" y="50" width="80" height="120" as="geometry" />
        </mxCell>
        <mxCell id="fIrhu684fTIpMeampoxX-22" value="AWS Direct Connect" style="outlineConnect=0;fontColor=#232F3E;gradientColor=none;strokeColor=#ffffff;fillColor=#232F3E;dashed=0;verticalLabelPosition=middle;verticalAlign=bottom;align=center;html=1;whiteSpace=wrap;fontSize=10;fontStyle=1;spacing=3;shape=mxgraph.aws4.productIcon;prIcon=mxgraph.aws4.direct_connect;" parent="1" vertex="1">
          <mxGeometry x="380" y="120" width="80" height="110" as="geometry" />
        </mxCell>
        <mxCell id="fIrhu684fTIpMeampoxX-24" value="&lt;b&gt;&lt;font color=&quot;#80ff00&quot;&gt;On premise&lt;/font&gt;&lt;/b&gt;" style="text;html=1;strokeColor=none;fillColor=none;align=center;verticalAlign=middle;whiteSpace=wrap;rounded=0;" parent="1" vertex="1">
          <mxGeometry x="530" y="60" width="40" height="20" as="geometry" />
        </mxCell>
        <mxCell id="fIrhu684fTIpMeampoxX-25" value="" style="endArrow=classic;startArrow=classic;html=1;" parent="1" edge="1">
          <mxGeometry width="50" height="50" relative="1" as="geometry">
            <mxPoint x="330" y="90" as="sourcePoint" />
            <mxPoint x="380" y="40" as="targetPoint" />
            <Array as="points">
              <mxPoint x="370" y="50" />
            </Array>
          </mxGeometry>
        </mxCell>
        <mxCell id="fIrhu684fTIpMeampoxX-26" value="" style="endArrow=classic;startArrow=classic;html=1;" parent="1" source="fIrhu684fTIpMeampoxX-17" edge="1">
          <mxGeometry width="50" height="50" relative="1" as="geometry">
            <mxPoint x="340" y="160" as="sourcePoint" />
            <mxPoint x="510" y="160" as="targetPoint" />
            <Array as="points">
              <mxPoint x="380" y="140" />
            </Array>
          </mxGeometry>
        </mxCell>
        <mxCell id="fIrhu684fTIpMeampoxX-28" value="" style="endArrow=classic;startArrow=classic;html=1;" parent="1" target="fIrhu684fTIpMeampoxX-19" edge="1">
          <mxGeometry width="50" height="50" relative="1" as="geometry">
            <mxPoint x="320" y="110" as="sourcePoint" />
            <mxPoint x="330" y="230" as="targetPoint" />
            <Array as="points">
              <mxPoint x="310" y="160" />
            </Array>
          </mxGeometry>
        </mxCell>
        <mxCell id="fIrhu684fTIpMeampoxX-29" value="1.Fetch VM List" style="text;html=1;strokeColor=none;fillColor=none;align=center;verticalAlign=middle;whiteSpace=wrap;rounded=0;" parent="1" vertex="1">
          <mxGeometry x="70" y="50" width="40" height="20" as="geometry" />
        </mxCell>
        <mxCell id="fIrhu684fTIpMeampoxX-30" value="2./getvm" style="text;html=1;strokeColor=none;fillColor=none;align=center;verticalAlign=middle;whiteSpace=wrap;rounded=0;" parent="1" vertex="1">
          <mxGeometry x="220" y="60" width="40" height="20" as="geometry" />
        </mxCell>
        <mxCell id="fIrhu684fTIpMeampoxX-31" value="3.Fetch EC2 if cloud" style="text;html=1;strokeColor=none;fillColor=none;align=center;verticalAlign=middle;whiteSpace=wrap;rounded=0;" parent="1" vertex="1">
          <mxGeometry x="320" y="20" width="40" height="20" as="geometry" />
        </mxCell>
        <mxCell id="fIrhu684fTIpMeampoxX-32" value="4.Fetch Onpremise VM List" style="text;html=1;strokeColor=none;fillColor=none;align=center;verticalAlign=middle;whiteSpace=wrap;rounded=0;" parent="1" vertex="1">
          <mxGeometry x="350" y="91.5" width="40" height="20" as="geometry" />
        </mxCell>
        <mxCell id="fIrhu684fTIpMeampoxX-33" value="5.VMs Already added to schedule" style="text;html=1;strokeColor=none;fillColor=none;align=center;verticalAlign=middle;whiteSpace=wrap;rounded=0;" parent="1" vertex="1">
          <mxGeometry x="290" y="200" width="40" height="20" as="geometry" />
        </mxCell>
        <mxCell id="fIrhu684fTIpMeampoxX-35" value="6.VM id list" style="text;html=1;strokeColor=none;fillColor=none;align=center;verticalAlign=middle;whiteSpace=wrap;rounded=0;" parent="1" vertex="1">
          <mxGeometry x="220" y="110" width="40" height="20" as="geometry" />
        </mxCell>
        <mxCell id="fIrhu684fTIpMeampoxX-39" value="7.VM id list" style="text;html=1;strokeColor=none;fillColor=none;align=center;verticalAlign=middle;whiteSpace=wrap;rounded=0;" parent="1" vertex="1">
          <mxGeometry x="70" y="100" width="40" height="20" as="geometry" />
        </mxCell>
        <mxCell id="fIrhu684fTIpMeampoxX-40" value="Amazon API Gateway" style="outlineConnect=0;fontColor=#232F3E;gradientColor=none;strokeColor=#ffffff;fillColor=#232F3E;dashed=0;verticalLabelPosition=middle;verticalAlign=bottom;align=center;html=1;whiteSpace=wrap;fontSize=10;fontStyle=1;spacing=3;shape=mxgraph.aws4.productIcon;prIcon=mxgraph.aws4.api_gateway;" parent="1" vertex="1">
          <mxGeometry x="130" y="210" width="80" height="120" as="geometry" />
        </mxCell>
        <mxCell id="fIrhu684fTIpMeampoxX-41" value="" style="endArrow=classic;startArrow=classic;html=1;" parent="1" source="fIrhu684fTIpMeampoxX-9" target="fIrhu684fTIpMeampoxX-40" edge="1">
          <mxGeometry width="50" height="50" relative="1" as="geometry">
            <mxPoint x="53" y="180" as="sourcePoint" />
            <mxPoint x="103" y="130" as="targetPoint" />
          </mxGeometry>
        </mxCell>
        <mxCell id="fIrhu684fTIpMeampoxX-43" value="Amazon S3" style="outlineConnect=0;fontColor=#232F3E;gradientColor=none;strokeColor=#ffffff;fillColor=#232F3E;dashed=0;verticalLabelPosition=middle;verticalAlign=bottom;align=center;html=1;whiteSpace=wrap;fontSize=10;fontStyle=1;spacing=3;shape=mxgraph.aws4.productIcon;prIcon=mxgraph.aws4.s3;" parent="1" vertex="1">
          <mxGeometry x="400" y="460" width="80" height="100" as="geometry" />
        </mxCell>
        <mxCell id="fIrhu684fTIpMeampoxX-45" value="AWS Lambda" style="outlineConnect=0;fontColor=#232F3E;gradientColor=none;strokeColor=#ffffff;fillColor=#232F3E;dashed=0;verticalLabelPosition=middle;verticalAlign=bottom;align=center;html=1;whiteSpace=wrap;fontSize=10;fontStyle=1;spacing=3;shape=mxgraph.aws4.productIcon;prIcon=mxgraph.aws4.lambda;" parent="1" vertex="1">
          <mxGeometry x="260" y="330" width="80" height="100" as="geometry" />
        </mxCell>
        <mxCell id="fIrhu684fTIpMeampoxX-46" value="" style="endArrow=classic;startArrow=classic;html=1;exitX=0;exitY=0.5;exitDx=0;exitDy=0;exitPerimeter=0;" parent="1" source="fIrhu684fTIpMeampoxX-45" edge="1">
          <mxGeometry width="50" height="50" relative="1" as="geometry">
            <mxPoint x="220" y="340" as="sourcePoint" />
            <mxPoint x="200" y="300" as="targetPoint" />
          </mxGeometry>
        </mxCell>
        <mxCell id="fIrhu684fTIpMeampoxX-47" value="" style="endArrow=classic;startArrow=classic;html=1;" parent="1" source="fIrhu684fTIpMeampoxX-45" target="fIrhu684fTIpMeampoxX-43" edge="1">
          <mxGeometry width="50" height="50" relative="1" as="geometry">
            <mxPoint x="330" y="460" as="sourcePoint" />
            <mxPoint x="400" y="400" as="targetPoint" />
            <Array as="points">
              <mxPoint x="330" y="400" />
              <mxPoint x="360" y="430" />
            </Array>
          </mxGeometry>
        </mxCell>
        <mxCell id="fIrhu684fTIpMeampoxX-48" value="" style="endArrow=classic;startArrow=classic;html=1;" parent="1" edge="1">
          <mxGeometry width="50" height="50" relative="1" as="geometry">
            <mxPoint x="340" y="370" as="sourcePoint" />
            <mxPoint x="390" y="320" as="targetPoint" />
          </mxGeometry>
        </mxCell>
        <mxCell id="fIrhu684fTIpMeampoxX-49" value="8.submit&amp;nbsp;" style="text;html=1;strokeColor=none;fillColor=none;align=center;verticalAlign=middle;whiteSpace=wrap;rounded=0;" parent="1" vertex="1">
          <mxGeometry x="90" y="165" width="40" height="20" as="geometry" />
        </mxCell>
        <mxCell id="fIrhu684fTIpMeampoxX-50" value="9./postvmdata" style="text;html=1;strokeColor=none;fillColor=none;align=center;verticalAlign=middle;whiteSpace=wrap;rounded=0;" parent="1" vertex="1">
          <mxGeometry x="230" y="300" width="40" height="20" as="geometry" />
        </mxCell>
        <mxCell id="fIrhu684fTIpMeampoxX-51" value="10. Upload ssh key for SAN cleanup -If applicable" style="text;html=1;strokeColor=none;fillColor=none;align=center;verticalAlign=middle;whiteSpace=wrap;rounded=0;" parent="1" vertex="1">
          <mxGeometry x="350" y="400" width="110" height="20" as="geometry" />
        </mxCell>
        <mxCell id="fIrhu684fTIpMeampoxX-55" value="11. Object ID of ssh key" style="text;html=1;strokeColor=none;fillColor=none;align=center;verticalAlign=middle;whiteSpace=wrap;rounded=0;" parent="1" vertex="1">
          <mxGeometry x="290" y="450" width="90" height="20" as="geometry" />
        </mxCell>
        <mxCell id="fIrhu684fTIpMeampoxX-56" value="12. Store VM details" style="text;html=1;strokeColor=none;fillColor=none;align=center;verticalAlign=middle;whiteSpace=wrap;rounded=0;" parent="1" vertex="1">
          <mxGeometry x="340" y="320" width="40" height="20" as="geometry" />
        </mxCell>
        <mxCell id="fIrhu684fTIpMeampoxX-57" value="13. Return HTTP response" style="text;html=1;strokeColor=none;fillColor=none;align=center;verticalAlign=middle;whiteSpace=wrap;rounded=0;" parent="1" vertex="1">
          <mxGeometry x="180" y="350" width="40" height="20" as="geometry" />
        </mxCell>
        <mxCell id="fIrhu684fTIpMeampoxX-58" value="14.Http Response" style="text;html=1;strokeColor=none;fillColor=none;align=center;verticalAlign=middle;whiteSpace=wrap;rounded=0;" parent="1" vertex="1">
          <mxGeometry x="53" y="190" width="40" height="40" as="geometry" />
        </mxCell>
      </root>
    </mxGraphModel>
  </diagram>
</mxfile>
